# xmcd
#
# Track frame offsets:
#	150
#	13598
#	38012
#	51884
#	74322
#	86007
#	102210
#	122011
#	138056
#	155585
#	178978
#	195897
#
# Disc length: 2640 seconds
#
# Revision: 1
# Processed by: cddbd v1.5.2PL0 Copyright (c) Steve Scherf et al.
# Submitted via: audiograbber 1.83.01
#
DISCID=970a4e0c
DTITLE=Brendan Power and PT Gazell - Back To Back
DYEAR=2008
DGENRE=
TTITLE0=Till Tom Special
TTITLE1=Better Go
TTITLE2=Windy and Warm
TTITLE3=What A Wonderful World
TTITLE4=Fat Boy Rag
TTITLE5=Dill Pickle Rag
TTITLE6=Back To Back
TTITLE7=Broadway
TTITLE8=Swing 42
TTITLE9=When I Fall In Love
TTITLE10=Honeysuckle Rose
TTITLE11=The Boys Hang Ten
EXTD=missmaxrecords Tethnik Records\nBrandan plays Suzuki Chromatic, PT plays S
EXTD=eydel Diatonic harmonica
EXTT0=Benny Goodman - Lion Hampton
EXTT1=Ben Webster
EXTT2=John D. Loudermilk
EXTT3=Bob Thiele - G.D. Weiss - George Douglas\nSolo: Brendan
EXTT4=Bob Wills - Jr. Barnard
EXTT5=Charles Johnson\nSolo: Brendan
EXTT6=Buddy Montgomery
EXTT7=Bill Byrd, Henri Woods, Theodore Mcrae\nSolo: PT
EXTT8=Djingo Reinhardt
EXTT9=Victour Young - Edward Heyman\nSolo: PT
EXTT10=Thomas "Fats" Waller - Andy Razaf
EXTT11=
PLAYORDER=
